<svg width="148" height="165" viewBox="0 0 148 165" fill="none" xmlns="http://www.w3.org/2000/svg">
<path d="M5.14317 44.6171C8.73194 60.519 21.093 74.9939 34.622 83.5334C47.5794 91.71 67.4381 97.8493 80.7387 86.9639C85.585 82.9993 88.0281 76.1698 82.6851 71.4691C77.7243 67.0996 70.6342 68.3758 66.6702 73.395C55.9624 86.9506 71.9961 104.908 83.3038 111.799C90.4532 116.155 98.6375 118.806 106.992 119.433C114.722 120.02 124.027 119.324 130.691 115.023C131.652 114.402 130.853 112.69 129.767 112.967C123.967 114.436 118.59 116.328 112.523 116.539C106.236 116.761 99.8969 115.702 93.9825 113.591C82.2445 109.41 69.3405 99.6485 66.5424 86.8037C65.0581 79.9968 69.4061 68.7746 78.2137 71.9037C81.7812 73.1732 84.1656 76.71 82.6483 80.4399C81.2605 83.8418 77.6949 86.2757 74.4934 87.7511C61.4534 93.7651 45.4119 87.8934 34.2075 80.5186C27.8693 76.3453 22.2533 71.1182 17.6098 65.1186C12.6384 58.6976 9.51411 51.6652 6.49071 44.2083C6.1899 43.4904 4.96703 43.8358 5.14317 44.6171Z" fill="#5979CB"/>
<path d="M3.99281 40.3215C3.73073 58.4282 14.8134 74.8121 30.2909 83.5988C37.7403 87.8268 45.9746 90.4917 54.4142 91.8611C63.0254 93.2554 73.0389 94.0706 81.3589 90.9072C87.1655 88.7057 94.9979 81.6343 90.4761 74.8509C86.5013 68.8789 76.3014 66.5943 69.9657 69.5003C62.8683 72.7558 60.9789 81.5312 63.0419 88.4573C65.5021 96.7216 72.4645 103.516 79.2645 108.474C94.1537 119.326 113.865 123.271 131.704 118.557C133.404 118.106 133.011 115.381 131.278 115.824C118.302 119.126 104.593 117.974 92.2966 112.679C86.0313 109.983 80.1863 106.193 75.2362 101.49C69.5702 96.1036 63.6743 88.7126 65.0482 80.3804C66.5651 71.1818 75.8861 69.0123 83.4825 72.5617C87.9131 74.632 90.8918 78.3391 87.8167 83.0973C85.3234 86.9597 80.532 88.8725 76.1878 89.6875C62.2705 92.2895 45.7227 88.8767 33.2849 82.3917C17.6939 74.2612 5.8098 58.5438 5.80072 40.5152C5.80398 39.3543 4.00881 39.1403 3.99281 40.3215Z" fill="#5979CB"/>
<path d="M115.158 109.762C118.432 111.433 121.99 112.634 125.399 114.004C127.009 114.651 128.623 115.304 130.239 115.948C130.986 116.247 135.061 117.347 135.219 118.136C135.379 118.947 128.163 123.983 127.278 124.724C124.702 126.859 121.108 128.97 119.409 131.892C118.803 132.945 119.722 134.129 120.894 133.704C123.058 132.921 124.651 131.191 126.39 129.724C128.364 128.064 130.335 126.398 132.309 124.738C134.138 123.194 139.116 120.497 138.65 117.528C138.204 114.687 132.746 114.012 130.588 113.203C125.745 111.384 120.891 109.183 115.908 107.813C114.586 107.452 113.959 109.156 115.158 109.762Z" fill="#5979CB"/>
<path d="M115.078 110.753C118.876 111.838 123.05 111.909 126.953 112.547C131.48 113.29 136.016 114.183 140.394 115.569C140.244 114.667 140.091 113.759 139.947 112.854C136.708 115.658 133.359 118.33 129.866 120.812C126.477 123.217 122.149 125.024 119.218 127.931C118.362 128.783 118.857 130.711 120.301 130.339C124.116 129.368 127.825 126.345 131.004 124.107C134.851 121.408 138.486 118.462 141.968 115.307C143.032 114.348 142.469 112.755 141.122 112.5C136.683 111.659 132.281 110.692 127.803 110.057C123.778 109.489 119.283 108.622 115.231 109.196C114.477 109.302 114.277 110.529 115.078 110.753Z" fill="#5979CB"/>
<path d="M111.813 111.746C121.919 113.19 132.041 114.57 142.13 116.138C141.85 115.207 141.567 114.269 141.287 113.338C137.959 116.803 134.623 120.234 131.061 123.454C127.789 126.412 123.686 128.949 120.922 132.371C120.047 133.457 121.409 134.945 122.6 134.417C126.769 132.58 130.377 128.698 133.683 125.637C137.152 122.422 140.503 119.057 143.598 115.478C144.395 114.559 143.581 113.087 142.475 112.979C132.321 111.95 122.194 110.734 112.054 109.574C110.644 109.421 110.425 111.546 111.813 111.746Z" fill="#5979CB"/>
</svg>
