<svg xmlns="http://www.w3.org/2000/svg" width="92" height="116" fill="none" viewBox="0 0 92 116"><path fill="#EBF1FF" d="M86.3466 0.831019C94.9518 14.9437 87.6548 32.7129 75.8489 42.5319C72.3928 45.4101 68.2155 46.9048 63.7795 45.49C59.8036 44.2184 56.9001 40.9175 56.1339 36.82C55.8093 35.0988 55.7814 32.913 56.4434 31.233C58.2262 26.712 61.7604 29.248 63.6477 31.3456C66.4402 34.4422 67.8872 38.5265 68.4125 42.6088C70.2304 56.6 61.2899 73.3065 47.6396 78.0661C44.637 79.1116 41.1564 79.5495 38.164 78.2508C36.0212 77.3221 32.8733 74.6303 35.0093 72.1598C36.6862 70.2217 39.9426 70.7217 41.5885 72.3878C44.3735 75.2076 44.158 80.1012 43.9482 83.7632C43.7305 87.6286 43.0472 91.4734 41.767 95.1343C38.9899 103.089 33.1282 110.098 25.0047 112.906C16.7674 115.757 6.94909 113.127 2.15547 105.6C1.48045 104.539 -0.323694 105.366 0.359091 106.436C5.31572 114.155 14.9436 117.568 23.7675 115.241C33.2767 112.739 40.3296 104.811 43.5024 95.7413C45.137 91.0554 45.8947 86.0228 45.8603 81.0666C45.8331 77.0243 45.1176 71.6098 40.9622 69.6652C38.448 68.4943 34.7166 68.9883 33.0964 71.4366C30.9975 74.6068 33.7982 78.1288 36.6061 79.608C44.2442 83.6214 53.4364 78.1971 58.8725 72.8868C65.9049 66.0057 70.3899 56.307 70.4348 46.408C70.4581 41.4735 69.3466 36.3881 66.5877 32.2407C64.9466 29.7764 61.4565 25.5828 57.9959 26.617C54.2609 27.7353 53.7933 33.5984 54.2778 36.7088C54.9294 40.9118 57.5283 44.5663 61.3683 46.4174C72.2674 51.6661 81.8265 40.3621 86.6484 31.863C92.1239 22.21 93.2547 10.1129 87.1845 0.448157C86.8719 -0.0485582 86.0346 0.325862 86.3466 0.831019Z"/></svg>