<svg width="141" height="36" viewBox="0 0 141 36" fill="none" xmlns="http://www.w3.org/2000/svg">
<path d="M85.5421 10.7569C83.2829 10.7569 81.5083 11.2415 79.7328 12.209C79.7328 7.04456 79.7328 2.36482 79.8949 0.751465L69.0805 2.6873V3.65568L70.2102 3.81693C71.6614 4.13941 72.1479 4.94562 72.4676 6.88332C72.7928 10.7569 72.6297 31.4154 72.4676 34.8052C75.3727 35.4511 78.44 35.9358 81.5074 35.9358C90.0616 35.9358 95.226 30.6092 95.226 22.2162C95.226 15.5997 91.03 10.7569 85.5421 10.7569ZM81.8298 34.1593C81.1839 34.1593 80.3759 34.1593 79.8931 33.999C79.7309 31.7398 79.5706 22.2162 79.7309 13.8242C80.6993 13.5008 81.3443 13.3395 82.1523 13.3395C85.7052 13.3395 87.642 17.5355 87.642 22.699C87.6411 29.1571 85.2197 34.1593 81.8298 34.1593ZM28.4066 1.39643H0V2.84854L1.61428 3.00978C3.71136 3.33227 4.51944 4.62314 4.84099 7.68953C5.32658 13.4998 5.1644 23.9917 4.84099 28.993C4.5185 32.0604 3.71229 33.5134 1.61428 33.6728L0 33.9971V35.288H18.2381V33.9971L16.3013 33.6728C14.2033 33.5125 13.3961 32.0604 13.0737 28.993C12.9115 26.8941 12.7502 23.5043 12.7502 19.3092L16.6238 19.4704C19.0452 19.4704 20.1739 21.4072 20.6586 24.1502H22.1116V12.6946H20.6586C20.173 15.4385 19.0452 17.3743 16.6238 17.3743L12.7512 17.5365C12.7512 12.0487 12.9124 6.88425 13.0746 3.81786H18.7227C23.0818 3.81786 25.3411 6.56084 26.9544 11.4037L28.5687 10.919L28.4066 1.39643Z" fill="#CECECE"/>
<path d="M37.6066 10.4344C45.6771 10.4344 49.7118 15.9222 49.7118 23.1846C49.7118 30.1246 45.1924 35.9367 37.1219 35.9367C29.0524 35.9367 25.0176 30.448 25.0176 23.1846C25.0176 16.2447 29.5361 10.4344 37.6066 10.4344ZM37.1219 12.0487C33.5709 12.0487 32.6025 16.8906 32.6025 23.1846C32.6025 29.3174 34.2168 34.3206 37.4453 34.3206C41.1548 34.3206 42.1251 29.4787 42.1251 23.1846C42.1251 17.0518 40.5127 12.0487 37.1219 12.0487ZM97.323 23.3468C97.323 16.7294 101.519 10.4344 109.751 10.4344C116.528 10.4344 119.757 15.4385 119.757 22.055H104.747C104.584 28.0265 107.49 32.3847 113.301 32.3847C115.883 32.3847 117.174 31.7407 118.79 30.6101L119.434 31.4164C117.819 33.6756 114.269 35.9367 109.751 35.9367C102.487 35.9358 97.323 30.7714 97.323 23.3468ZM104.747 20.2804L112.332 20.1182C112.332 16.8906 111.848 12.0487 109.105 12.0487C106.362 12.0487 104.907 16.5672 104.747 20.2804ZM138.966 11.7262C137.03 10.9181 134.448 10.4344 131.543 10.4344C125.572 10.4344 121.858 13.9845 121.858 18.1815C121.858 22.3784 124.599 24.153 128.477 25.4448C132.511 26.896 133.642 28.0265 133.642 29.9633C133.642 31.9001 132.189 33.6747 129.606 33.6747C126.54 33.6747 124.279 31.9001 122.505 27.0572L121.374 27.3816L121.536 34.4828C123.473 35.289 127.023 35.9358 130.091 35.9358C136.385 35.9358 140.421 32.7063 140.421 27.7041C140.421 24.3143 138.645 22.3784 134.449 20.7632C129.928 18.9886 128.316 17.859 128.316 15.76C128.316 13.662 129.771 12.209 131.708 12.209C134.611 12.209 136.548 13.9845 138.003 18.3427L139.131 18.0202L138.966 11.7262ZM70.6929 11.0803C67.9499 9.46787 63.107 10.2732 60.5253 16.0844L60.6856 10.4353L49.8731 12.5333V13.5017L51.0027 13.663C52.4567 13.8251 53.1007 14.6313 53.2629 16.7303C53.5854 20.6038 53.4241 27.3834 53.2629 30.7723C53.1007 32.7072 52.4567 33.6756 51.0027 33.8378L49.8731 34V35.2908H64.8826V34L62.9458 33.8378C61.3324 33.6756 60.8478 32.7072 60.6856 30.7723C60.3631 27.705 60.3631 21.5722 60.5253 17.6987C61.3315 16.5681 64.8826 15.6007 68.1102 17.6987L70.6929 11.0803Z" fill="#CECECE"/>
</svg>
