<svg xmlns="http://www.w3.org/2000/svg" width="157" height="52" fill="none" viewBox="0 0 157 52"><path fill="#CECECE" d="M19.3323 0H20.7282C25.5742 0.105544 30.3412 2.05811 33.7651 5.51467C32.5009 6.80758 31.2104 8.04772 29.9725 9.34063C28.0499 7.59916 25.7322 6.25348 23.2039 5.77853C19.464 4.98695 15.4344 5.69937 12.3002 7.83663C8.87641 10.0794 6.55873 13.879 6.05833 17.9425C5.50524 21.9531 6.63774 26.1749 9.24513 29.2884C11.7472 32.3228 15.5661 34.2226 19.5166 34.3545C23.2039 34.5656 27.0491 33.431 29.7355 30.8452C31.8425 29.0246 32.8169 26.254 33.133 23.5627C28.761 23.5627 24.389 23.5891 20.017 23.5627V18.1272H38.4268C39.3749 23.9585 38.0054 30.5286 33.5807 34.6976C30.6309 37.6528 26.5487 39.3943 22.3874 39.7373C18.3578 40.1331 14.1965 39.3679 10.6147 37.4153C6.3217 35.1197 2.89786 31.241 1.21228 26.6762C-0.367955 22.4808 -0.394292 17.7314 1.08059 13.5096C2.42379 9.65727 5.00484 6.25348 8.32333 3.87874C11.5101 1.53039 15.3817 0.237474 19.3323 0Z"/><path fill="#CECECE" d="M124.945 1.37207H130.581V39.0512C128.711 39.0512 126.815 39.0776 124.945 39.0248C124.971 26.4915 124.945 13.9318 124.945 1.37207Z"/><path fill="#CECECE" d="M50.9633 14.4333C54.4398 13.7736 58.2061 14.5124 61.0768 16.5969C63.6842 18.444 65.5015 21.3464 66.0546 24.5127C66.7657 28.1804 65.8702 32.191 63.4998 35.0935C60.9451 38.339 56.7575 40.0804 52.6753 39.8166C48.9354 39.6055 45.3008 37.7321 43.0885 34.6713C40.5865 31.2939 39.9807 26.65 41.3502 22.6921C42.7198 18.4439 46.5914 15.1985 50.9633 14.4333ZM51.7535 19.4466C50.3312 19.816 49.0144 20.634 48.0662 21.795C45.5115 24.8557 45.6696 29.8427 48.4876 32.6924C50.0942 34.3283 52.5172 35.0935 54.7559 34.6449C56.8365 34.2755 58.6538 32.8771 59.6546 31.0301C61.3929 27.8901 60.8925 23.5628 58.2324 21.1089C56.5205 19.5258 54.0185 18.8661 51.7535 19.4466Z"/><path fill="#CECECE" d="M78.8806 14.4333C82.8575 13.6681 87.2032 14.7763 90.1793 17.5732C95.0253 21.9269 95.5521 30.0802 91.4171 35.0935C88.9151 38.2598 84.8591 40.0013 80.8559 39.8166C77.037 39.711 73.2708 37.8112 71.0058 34.6713C68.4511 31.2147 67.898 26.4653 69.3465 22.4282C70.7951 18.312 74.5876 15.1721 78.8806 14.4333ZM79.6707 19.4466C78.2485 19.816 76.9316 20.634 75.9835 21.7686C73.4551 24.7766 73.5605 29.6844 76.2732 32.5604C77.8798 34.2755 80.3818 35.1199 82.6995 34.6449C84.7538 34.2491 86.5974 32.8771 87.5982 31.03C89.3101 27.8637 88.8097 23.5364 86.1233 21.0825C84.4114 19.4994 81.9094 18.8661 79.6707 19.4466Z"/><path fill="#CECECE" d="M102.558 15.9635C105.587 14.0637 109.617 13.536 112.882 15.1719C113.909 15.6205 114.752 16.3857 115.569 17.1509C115.595 16.4384 115.569 15.6996 115.595 14.9608C117.36 14.9872 119.124 14.9608 120.915 14.9872V38.2596C120.889 41.769 119.993 45.4894 117.465 48.0488C114.7 50.8721 110.459 51.7429 106.64 51.1624C102.558 50.5555 99.0026 47.5739 97.4224 43.8007C99.0026 43.0355 100.662 42.4286 102.295 41.7162C103.217 43.8799 105.087 45.7269 107.431 46.1491C109.775 46.5712 112.487 45.9907 114.015 44.0382C115.648 42.0328 115.648 39.2887 115.569 36.8348C114.357 38.0222 112.961 39.0776 111.276 39.4734C107.615 40.5025 103.585 39.2359 100.767 36.7556C97.9228 34.2754 96.2372 30.4494 96.3952 26.6498C96.4742 22.3489 98.8973 18.2063 102.558 15.9635ZM108.01 19.3409C106.403 19.6048 104.902 20.5019 103.875 21.742C101.399 24.6973 101.399 29.4203 103.901 32.3228C105.324 34.0379 107.615 34.9878 109.827 34.7503C111.908 34.5392 113.83 33.2199 114.858 31.3993C116.596 28.3121 116.306 24.1168 113.962 21.4254C112.514 19.7631 110.196 18.9451 108.01 19.3409Z"/><path fill="#CECECE" d="M137.349 17.3091C140.51 14.3538 145.382 13.3512 149.438 14.9079C153.283 16.3592 155.733 20.0268 156.971 23.8C151.256 26.1747 145.567 28.5231 139.851 30.8978C140.642 32.4018 141.853 33.7739 143.486 34.328C145.777 35.146 148.516 34.8557 150.439 33.3253C151.203 32.7448 151.809 31.9797 152.388 31.2408C153.837 32.2171 155.285 33.167 156.734 34.1433C154.679 37.2305 151.229 39.3941 147.516 39.7371C143.407 40.2385 139.035 38.6553 136.375 35.4362C132.003 30.3701 132.424 21.8738 137.349 17.3091ZM140.168 22.1905C139.272 23.4834 138.903 25.0665 138.93 26.6233C142.749 25.0401 146.567 23.457 150.386 21.8474C149.754 20.3698 148.227 19.4727 146.673 19.2352C144.171 18.7867 141.563 20.1324 140.168 22.1905Z"/></svg>