<svg width="197" height="40" viewBox="0 0 197 40" fill="none" xmlns="http://www.w3.org/2000/svg">
<path d="M99.4995 35.0021C99.4995 35.6885 99.4995 35.8445 99.9609 36.2657L102.545 38.8241V38.9333H91.0866V34.0193C89.9331 37.2579 86.8827 39.3998 83.4881 39.3545C77.5973 39.3545 73.3213 34.6745 73.3213 26.0634C73.3213 17.9982 77.9353 12.6162 84.4109 12.6162C87.2814 12.4332 89.9528 14.1102 91.071 16.797V5.9556C91.113 5.71003 91.0863 5.45759 90.994 5.22629C90.9017 4.99499 90.7473 4.79386 90.5479 4.6452L88.087 2.24282V2.13362L99.4995 0.776423V35.0021ZM91.0866 33.4422V17.265C90.6795 16.7501 90.1598 16.336 89.5677 16.0546C88.9755 15.7733 88.3269 15.6323 87.6717 15.6426C84.8878 15.6426 82.1962 18.201 82.1962 25.7982C82.1962 32.9118 84.5187 35.4233 87.4105 35.4233C88.1354 35.407 88.8463 35.2191 89.4851 34.8748C90.1238 34.5305 90.6724 34.0396 91.0861 33.4422H91.0866ZM107.098 38.9333V17.0934C107.134 16.8538 107.111 16.6089 107.031 16.3803C106.95 16.1518 106.815 15.9467 106.637 15.783L104.098 13.131V13.0218H115.558V35.1737C115.558 35.8601 115.558 36.0161 116.019 36.4373L118.542 38.8397V38.9489L107.098 38.9333ZM106.683 5.03468C106.683 2.45029 108.749 0.355225 111.297 0.355225C113.845 0.355225 115.911 2.45081 115.911 5.0352C115.911 7.61959 113.845 9.71518 111.297 9.71518C108.749 9.71518 106.683 7.61959 106.683 5.0352V5.03468ZM146.473 34.9553C146.473 35.6417 146.473 35.8445 146.935 36.2657L149.519 38.8241V38.9333H137.999V33.3329C136.949 36.8741 133.753 39.3129 130.108 39.3545C125.002 39.3545 122.264 35.5793 122.264 28.4346C122.264 24.987 122.264 21.2118 122.371 16.9686C122.413 16.7359 122.392 16.4962 122.311 16.2742C122.23 16.0521 122.091 15.8557 121.91 15.705L119.372 13.131V13.0218H130.739V27.2646C130.739 31.9446 131.416 35.0645 134.307 35.0645C135.074 35.0144 135.816 34.7726 136.466 34.3612C137.117 33.9498 137.654 33.3818 138.029 32.709V17.109C138.065 16.8694 138.042 16.6245 137.962 16.3959C137.881 16.1674 137.746 15.9623 137.568 15.7986L135.014 13.131V13.0218H146.473V34.9553ZM185.48 38.9333C185.48 38.0909 185.634 27.3582 185.634 24.8934C185.634 20.2134 184.91 16.9842 181.665 16.9842C180.857 17.0108 180.067 17.2281 179.359 17.6184C178.651 18.0087 178.045 18.5611 177.589 19.2306C177.915 20.6892 178.069 22.1816 178.051 23.6766C178.051 26.9214 177.943 31.0554 177.897 35.1893C177.855 35.4221 177.876 35.6617 177.957 35.8838C178.038 36.1058 178.176 36.3022 178.358 36.4529L180.942 38.8553V38.9645H169.376C169.376 38.1845 169.529 27.3894 169.529 24.9246C169.529 20.1666 168.807 17.0154 165.608 17.0154C164.829 17.0453 164.071 17.2727 163.403 17.6765C162.736 18.0803 162.182 18.6472 161.793 19.3242V35.2361C161.793 35.9225 161.793 36.0785 162.254 36.4997L164.777 38.9021V39.0113H153.333V17.1714C153.37 16.9318 153.347 16.6869 153.266 16.4583C153.186 16.2298 153.05 16.0247 152.872 15.861L150.334 13.131V13.0218H161.793V18.5754C162.856 14.9094 166.241 12.4457 170.006 12.6006C173.821 12.6006 176.405 14.7534 177.497 18.8406C178.71 15.0712 182.201 12.5419 186.11 12.6006C191.216 12.6006 194.108 16.4226 194.108 23.6454C194.108 27.093 194.001 31.0242 193.955 35.1581C193.911 35.3969 193.936 35.6434 194.029 35.8677C194.122 36.092 194.278 36.2845 194.477 36.4217L197 38.8241V38.9333H185.48ZM41.5286 35.5325L44.9279 38.8241V38.9333H27.6858V38.8241L31.1467 35.5325C31.3284 35.3818 31.4669 35.1854 31.548 34.9634C31.629 34.7413 31.6498 34.5017 31.6081 34.2689V13.2246C31.6081 12.3354 31.6081 11.1343 31.7616 10.1047L20.1334 39.355H19.9955L7.95206 12.4452C7.69026 11.7744 7.61353 11.7276 7.44401 11.2752V28.9187C7.29989 30.0989 7.49769 31.2958 8.01375 32.3663L12.8584 38.8246V38.9338H0V38.8246L4.84516 32.3507C5.35704 31.2845 5.55437 30.0937 5.41387 28.9187V9.41878C5.4932 8.46019 5.20757 7.50705 4.61447 6.75119L1.18459 2.24282V2.13362H13.4893L23.7945 24.9251L32.8694 2.13362H44.9124V2.24282L41.5286 6.0648C41.3293 6.21345 41.1749 6.41459 41.0826 6.64589C40.9902 6.87719 40.9636 7.12962 41.0056 7.37519V34.2695C40.9615 34.5083 40.9875 34.7549 41.0804 34.9792C41.1734 35.2035 41.3293 35.3959 41.5292 35.5331L41.5286 35.5325ZM55.018 24.987V25.0962C55.018 31.773 58.4172 34.4561 62.4008 34.4561C65.727 34.5711 68.8059 32.6793 70.245 29.6358H70.3528C68.9687 36.2345 64.9385 39.3545 58.9092 39.3545C52.403 39.3545 46.266 35.3765 46.266 26.157C46.266 16.4694 52.4186 12.6006 59.2166 12.6006C64.6927 12.6006 70.5219 15.2214 70.5219 23.6454V24.987H55.018ZM55.018 23.6454H62.6009V22.2882C62.6009 15.4242 61.2012 13.599 59.0938 13.599C56.5406 13.599 54.9874 16.329 54.9874 23.6454H55.018Z" fill="#CECECE"/>
</svg>
