<svg xmlns="http://www.w3.org/2000/svg" width="74" height="72" fill="none" viewBox="0 0 74 72"><path fill="#5979CB" d="M71.958 38.1425C62.4965 45.4277 51.3386 52.1894 38.8909 49.7869C33.1714 48.6817 27.9336 45.9346 23.0082 42.9278C17.1915 39.3758 11.5684 35.4976 5.87649 31.7503C4.88415 31.095 3.42014 31.6015 3.50121 32.9501C3.71166 36.4449 4.96337 39.6155 7.25573 42.2678C8.2124 43.3732 10.5483 42.6102 9.80759 40.9952C8.5858 38.3247 7.34112 35.6593 6.14334 32.9777C5.34315 31.1824 6.74619 30.7331 8.22502 30.1323C9.6702 29.5439 11.1365 29.0253 12.6175 28.5282C14.3413 27.9553 13.427 25.2808 11.7056 25.8573C9.56227 26.5787 7.41089 27.3423 5.35888 28.2908C4.12696 28.8603 2.95112 29.6283 2.77767 31.0974C2.58523 32.7318 3.67589 34.3821 4.31591 35.8027C5.23531 37.843 6.15831 39.8807 7.07772 41.9209C7.92872 41.4947 8.78217 41.0721 9.62957 40.6484C7.66851 38.3597 6.57283 35.7664 6.37401 32.7525C5.58427 33.1528 4.78849 33.552 3.99874 33.9523C9.9122 37.8013 15.7618 41.7884 21.8048 45.4336C27.2246 48.7036 33.0666 51.597 39.3947 52.5303C51.9555 54.3879 64.1122 47.6569 72.7681 39.0479C73.258 38.5623 72.5051 37.7179 71.958 38.1425Z"/></svg>