<?xml version="1.0" encoding="utf-8"?>
<!-- Generator: Adobe Illustrator 26.0.1, SVG Export Plug-In . SVG Version: 6.00 Build 0)  -->
<svg version="1.1" id="logo-16" xmlns="http://www.w3.org/2000/svg" xmlns:xlink="http://www.w3.org/1999/xlink" x="0px" y="0px"
	 viewBox="0 0 109 43" style="enable-background:new 0 0 109 43;" xml:space="preserve">
<style type="text/css">
	.st0{fill:#F0BB00;}
	.st1{fill:#6434C9;}
	.st2{fill:#325AC0;}
	.st3{fill:#178DD0;}
</style>
<path class="st0" d="M64.9,11.4c-2.7-2.7-6-4.9-9.6-6.4C51.8,3.5,47.9,2.8,44,2.8S36.3,3.5,32.7,5c-3.6,1.5-6.8,3.7-9.6,6.4L44,32.3
	L64.9,11.4z"/>
<path class="st1" d="M44.1,32.3c2.7,2.7,6,4.9,9.6,6.4C57.2,40.2,61.1,41,65,41c3.9,0,7.7-0.8,11.3-2.2s6.8-3.7,9.6-6.4L65,11.5
	L44.1,32.3z"/>
<path class="st2" d="M44,32.3c-2.7,2.7-6,4.9-9.6,6.4C30.8,40.2,27,41,23.1,41s-7.7-0.8-11.3-2.2c-3.6-1.5-6.8-3.7-9.6-6.4
	l20.9-20.9L44,32.3z"/>
<path class="st3" d="M65,11.4c2.7-2.7,6-4.9,9.6-6.4S82,2.8,85.9,2.8c3.9,0,7.7,0.8,11.3,2.2s6.8,3.7,9.6,6.4L85.9,32.3L65,11.4z"/>
</svg>
