<svg xmlns="http://www.w3.org/2000/svg" width="171" height="51" fill="none" viewBox="0 0 171 51"><path fill="#CECECE" fill-rule="evenodd" d="M170.857 50.7873V0H117.898V50.7873H170.857ZM158.789 14.5854C154.709 12.2411 150.628 11.0256 146.808 11.0256C142.728 11.0256 139.341 12.3279 136.737 14.9324C134.046 17.4503 132.658 20.5754 132.658 24.4822C132.658 28.2147 134.046 31.4265 136.652 34.0329C139.429 36.4622 142.728 37.6786 146.722 37.6786C150.976 37.6786 155.143 36.3763 159.223 33.7708V39.2412C155.402 41.3243 151.148 42.3663 146.461 42.3663C142.467 42.3663 139.168 41.5855 136.388 40.0229C133.729 38.4033 131.497 36.1702 129.878 33.5106C128.315 30.5608 127.447 27.6083 127.447 24.4822C127.447 19.2731 129.27 15.0192 133.003 11.5461C136.651 8.07307 141.166 6.25024 146.461 6.25024C150.28 6.25024 154.36 7.2055 158.788 9.20185V14.5854H158.789ZM111.996 0H59.0367V50.7873H111.996V0ZM75.2715 7.55253H84.4742C87.4258 7.55253 89.6843 7.89956 91.3318 8.6813C92.982 9.54979 94.1966 10.5909 94.9793 11.8941C95.846 13.2831 96.2816 14.8457 96.2816 16.6685C96.2816 20.1407 94.5446 22.5717 90.898 24.0485C93.5026 24.4822 95.5857 25.5243 97.0624 27.2603C98.5373 28.8229 99.2332 30.8202 99.319 33.0768C99.2332 34.8138 98.7985 36.4622 97.9309 37.8521C96.9747 39.2412 95.6724 40.3709 93.8496 41.3252C92.0268 42.1937 89.856 42.6275 87.1647 42.6275H75.2715V7.55253Z" clip-rule="evenodd"/><path fill="#CECECE" fill-rule="evenodd" d="M83.6057 22.5727C86.2961 22.5727 88.2066 22.0521 89.3353 21.0968C90.4641 19.9681 91.0705 18.6658 91.0705 17.0165C91.0705 13.7178 88.9016 11.9808 84.6467 11.9808H80.307V22.5727H83.6057ZM84.9947 27.0868H80.307V38.1115H85.3426C87.686 38.1115 89.5965 37.9389 90.8111 37.5909C91.9399 36.9827 92.7216 36.2887 93.2422 35.5078C93.7627 34.6393 94.1107 33.685 94.1107 32.643C94.023 31.601 93.7627 30.6448 93.1545 29.7781C92.634 28.822 91.7664 28.1279 90.5499 27.6932C89.423 27.2603 87.5125 27.0001 84.9947 27.0868ZM52.959 0H0V50.7873H52.959V0ZM16.1489 42.6266V7.55253H25.3516C28.3033 7.55253 30.474 7.89956 32.1234 8.6813C33.7727 9.46212 35.075 10.5909 35.8567 11.9799C36.7243 13.2822 37.159 14.8448 37.2457 16.6676C37.159 20.1398 35.4229 22.5708 31.7763 24.1334C34.4677 24.5681 36.464 25.6092 37.9407 27.2585C39.4165 28.8211 40.1983 30.8183 40.1983 33.075C40.1983 34.8978 39.7645 36.548 38.8092 37.8503C37.854 39.3252 36.5517 40.4549 34.8156 41.3234C32.9928 42.1919 30.7352 42.6257 28.0439 42.6257H16.1489V42.6266Z" clip-rule="evenodd"/><path fill="#CECECE" fill-rule="evenodd" d="M25.5253 11.981H21.1847V22.5728H24.5701C27.1747 22.5728 29.0843 22.0522 30.2139 21.097C31.3418 20.0549 31.95 18.6659 31.95 17.1033C31.9491 13.717 29.7792 11.981 25.5253 11.981ZM25.8724 27.0869H21.1847V38.1116H26.1326C28.7372 38.1116 30.6468 37.939 31.7756 37.5911C32.7308 37.1573 33.5117 36.549 34.119 35.6805C34.6404 34.7262 34.9007 33.77 34.9875 32.6431C34.9007 31.4267 34.5528 30.4723 34.0322 29.7783C33.4366 28.817 32.5103 28.1064 31.4276 27.7801C30.213 27.2604 28.3034 27.0869 25.8724 27.0869Z" clip-rule="evenodd"/></svg>