<svg xmlns="http://www.w3.org/2000/svg" width="110" height="44" fill="none" viewBox="0 0 110 44"><g clip-path="url(#clip0_80_425)"><path fill="#CECECE" d="M0 0.355225V3.29718H21.4113V0.355225H0ZM24.4449 0.355225V3.29718H54.957C54.957 3.29718 51.8404 0.355225 47.7125 0.355225H24.4449ZM60.9425 0.355225V3.29718H79.4019L78.3062 0.355225H60.9425ZM92.6363 0.355225L91.5406 3.29718H109.832V0.355225H92.6363ZM0 6.07659V9.01854H21.4113V6.07659H0ZM24.4449 6.08078V9.01865H58.4976C58.4976 9.01865 58.0999 6.75438 57.4061 6.08078H24.4449ZM60.9425 6.08078V9.01865H81.4257L80.4117 6.08078H60.9425ZM90.4449 6.08078L89.4308 9.01865H109.832V6.08078H90.4449V6.08078ZM6.15307 11.798V14.7441H15.4257V11.798H6.15307V11.798ZM30.598 11.798V14.7441H39.8707V11.798H30.598V11.798ZM48.8898 11.798V14.7441H58.1625C58.1625 14.7441 58.7512 13.1883 58.7512 11.798H48.8898V11.798ZM67.0957 11.798V14.7441H83.5355L82.4398 11.798H67.0957V11.798ZM88.4254 11.798L87.3254 14.7441H103.847V11.798H88.4254V11.798ZM6.15307 17.5236V20.4656H15.4257V17.5236H6.15307V17.5236ZM30.598 17.5236V20.4656H54.2824C54.2824 20.4656 56.2637 18.9561 56.8949 17.5236H30.598ZM67.0957 17.5236V20.4656H76.3684V18.8279L76.9571 20.4656H93.9426L94.5743 18.8279V20.4656H103.847V17.5236H86.4402L85.5164 20.0155L84.5882 17.5236H67.0957ZM6.15307 23.245V26.1869H15.4257V23.245H6.15307ZM30.598 23.245V26.1869H56.8949C56.2636 24.7592 54.2824 23.245 54.2824 23.245H30.598ZM67.0957 23.245V26.1869H76.3684V23.245H67.0957ZM78.0527 23.245L79.1742 26.1869H91.9101L92.9757 23.245H78.0527ZM94.5742 23.245V26.1869H103.847V23.245H94.5742ZM6.15307 28.9663V31.9082H15.4257V28.9663H6.15307ZM30.598 28.9663V31.9082H39.8707V28.9663H30.598ZM48.8898 28.9663V31.9082H58.7511C58.7511 30.5198 58.1624 28.9663 58.1624 28.9663H48.8898V28.9663ZM67.0957 28.9663V31.9082H76.3684V28.9663H67.0957ZM80.1582 28.9663L81.2453 31.9082H89.7832L90.8789 28.9663H80.1582ZM94.5742 28.9663V31.9082H103.847V28.9663H94.5742ZM0.16753 34.6877V37.6339H21.5788V34.6877H0.16753ZM24.4449 34.6877V37.6339H57.4061C58.0999 36.9593 58.4976 34.6877 58.4976 34.6877H24.4449V34.6877ZM61.1102 34.6877V37.6339H76.3684V34.6877H61.1102ZM82.2679 34.6877L83.3851 37.6339H87.7292L88.7776 34.6877H82.2679ZM94.5742 34.6877V37.6339H110V34.6877H94.5742ZM0.16753 40.4133V43.3552H21.5788V40.4133H0.16753ZM24.4449 40.4133V43.351H47.7125C51.8404 43.351 54.957 40.4133 54.957 40.4133H24.4449ZM61.1102 40.4133V43.3552H76.3684V40.4133H61.1102ZM84.3863 40.4133L85.4605 43.3469L85.6453 43.351L86.7368 40.4133H84.3863V40.4133ZM94.5742 40.4133V43.3552H110V40.4133H94.5742Z"/></g><defs><clipPath id="clip0_80_425"><rect width="110" height="43" fill="#fff" transform="translate(0 0.355225)"/></clipPath></defs></svg>