<svg xmlns="http://www.w3.org/2000/svg" width="236" height="34" fill="none" viewBox="0 0 236 34"><path fill="#CECECE" fill-rule="evenodd" d="M0 32.2844H8.03303V19.8578H13.8946L21.2763 32.2844H30.6119L21.7116 18.9985C26.7059 18.2483 29.3093 14.821 29.3093 10.4271C29.3093 3.03557 23.339 0.890623 16.0661 0.890623H0V32.2844ZM8.03303 6.78504H15.0883C17.9111 6.78504 21.0603 7.21303 21.0603 10.3197C21.0603 13.7469 17.4774 13.7469 14.6547 13.7469H8.03303V6.78504ZM35.931 32.2844H62.0944V25.8563H43.8552V19.5373H57.5338V13.1074H43.8552V7.32044H62.0944V0.892301H35.931V32.2844ZM100.523 0.892301H92.5992V18.6779C92.5992 23.9295 89.234 26.6082 84.4573 26.6082C79.6807 26.6082 76.4243 23.9295 76.4243 18.6779V0.892301H68.3913V18.5722C68.3913 27.5699 74.0351 33.0347 84.4573 33.0347C94.9867 33.0347 100.523 27.5699 100.523 18.5722V0.892301ZM116.263 32.2844H124.189V7.10729H135.694V0.892301H104.647V7.10729H116.263V32.2844ZM140.797 32.2844H166.852V25.8563H148.722V19.5373H162.398V13.1074H148.722V7.32044H166.852V0.892301H140.797V32.2844ZM173.797 32.2844H181.724V19.8578H187.693L194.966 32.2844H204.412L195.512 18.9985C200.504 18.2483 203.001 14.821 203.001 10.4271C203.001 3.03557 197.029 0.890623 189.864 0.890623H173.797V32.2844ZM181.724 6.78504H188.778C191.711 6.78504 194.855 7.21303 194.855 10.3197C194.855 13.7469 191.165 13.7469 188.343 13.7469H181.723V6.78504H181.724ZM234.697 3.35614C232.094 1.10546 227.64 0.355225 223.734 0.355225C214.834 0.355225 209.403 3.89154 209.403 10.5345C209.403 16.9626 215.048 18.8928 221.345 19.7487C224.384 20.1784 228.074 20.8212 228.074 23.4982C228.074 26.2843 224.709 26.9271 221.451 26.9271C218.847 26.9271 214.071 25.5341 212.335 23.9279L208.316 29.7132C211.79 32.3918 216.46 33.3552 221.021 33.3552C230.683 33.3552 236 29.8223 236 23.0685C236 16.2124 229.923 14.712 223.41 13.7469C220.587 13.3189 217.438 12.9967 217.438 10.3197C217.438 7.96326 220.26 6.78504 223.626 6.78504C225.472 6.78504 229.162 7.42785 230.574 8.60606L234.697 3.35614Z" clip-rule="evenodd"/></svg>